<svg xmlns="http://www.w3.org/2000/svg" width="964" height="550"><path fill="#3F3D3C" d="M433 10h5c9.453 19.966 18.872 39.946 28.146 59.996 2.162 4.67 4.328 9.34 6.495 14.008 3.681 7.935 7.36 15.872 11.033 23.811 2.044 4.416 4.09 8.831 6.139 13.244 1.294 2.792 2.584 5.585 3.875 8.379.45.97.902 1.939 1.367 2.938l1.207 2.62 1.03 2.224C498 139 498 139 498 141h2l.837-2.223c1.082-2.583 2.294-4.826 3.765-7.203l1.484-2.412 1.539-2.475 1.563-2.533c1.267-2.053 2.538-4.105 3.812-6.154 3.67 1.37 6.939 3.034 10.3 5.04l2.96 1.757 3.053 1.828 3.11 1.852c2.528 1.504 5.053 3.012 7.577 4.523l.868-1.8c1.676-3.257 3.795-6.2 5.882-9.2l1.455-2.104a2990.26 2990.26 0 0 1 6.488-9.325 5413.717 5413.717 0 0 1 20.093-28.592C579.234 75.683 583.627 69.349 588 63l6 2c0 4.498 0 4.498-2.133 7.406l-1.422 1.973-1.57 2.121a6399.32 6399.32 0 0 0-3.32 4.594l-1.767 2.43C580.81 87.647 577.908 91.825 575 96a4140.93 4140.93 0 0 1-13.313 18.938 2299.809 2299.809 0 0 0-10.875 15.5l-2.167 3.12C547.01 135.87 547.01 135.87 546 138l2.074.742c3.455 1.486 6.567 3.382 9.739 5.383l1.81 1.129c1.461.912 2.92 1.828 4.377 2.746-.631 3.212-1.766 5.482-3.54 8.223l-1.507 2.38a1289.427 1289.427 0 0 1-3.18 4.93l-1.5 2.377-1.393 2.16c-1.21 2.074-1.21 2.074.12 4.93 2.495 1.806 2.495 1.806 5.617 3.547l1.733 1.013a891.157 891.157 0 0 0 5.525 3.19c4.719 2.733 9.425 5.485 14.125 8.25l3.337 1.936 3.046 1.83 2.707 1.602L591 196c0 4.424-.71 5.68-2.938 9.383l-1.94 3.25-2.122 3.492-2.161 3.6c-5.794 9.64-11.683 19.224-17.609 28.783-3.17 5.116-6.292 10.239-9.23 15.492a60.068 60.068 0 0 1-9.773-4.723l-2.73-1.62-2.872-1.72-2.946-1.752A4229.993 4229.993 0 0 1 528 245l-2.492-1.49c-4.174-2.496-8.343-5-12.508-7.51l-1 2c.784 2.109 1.68 4.175 2.621 6.219l.88 1.93c.972 2.12 1.954 4.235 2.937 6.351l2.056 4.477c5.422 11.786 10.957 23.52 16.504 35.247 5.41 11.45 10.666 22.967 15.887 34.504 4.284 9.466 8.635 18.897 13.115 28.272 4.332-8.354 8.174-16.85 11.832-25.516 1.628-3.851 3.269-7.697 4.91-11.543l1.046-2.45c3.963-9.276 8.023-18.51 12.087-27.741a125060.174 125060.174 0 0 0 5.715-12.987 7631.423 7631.423 0 0 0 11.091-25.371l3.183-7.305c3.04-6.972 6.076-13.945 9.1-20.924 1.256-2.896 2.515-5.79 3.774-8.685.577-1.326 1.151-2.653 1.725-3.98 2.924-6.77 5.93-13.502 9.123-20.15l1.619-3.402c2.036-3.342 3.374-5.02 6.795-6.946 3.237-.522 6.405-.466 9.676-.39.925.005 1.85.01 2.803.017 2.945.022 5.889.072 8.833.123 2.001.02 4.002.038 6.002.055 4.896.044 9.79.113 14.686.195v4c-2.36 2.36-8.76 1.8-12.123 2.074-4.938.477-8.5 1.42-12.877 3.926l-3 1c-3.656 9.75-3.034 19.93-2.579 30.154a4330.542 4330.542 0 0 0 .656 15.68c.173 4.015.338 8.03.503 12.044.28 6.749.565 13.497.853 20.245.404 9.462.799 18.925 1.192 28.388a47401.674 47401.674 0 0 0 1.03 24.58c-1.578 29.878-1.578 29.878 5.345 56.909 5.625 4.083 10.607 4.778 17.438 5.25l2.794.234c2.256.187 4.51.359 6.768.516l-1 5h-75v-5c1.085-.11 2.17-.22 3.29-.332l4.335-.48 2.16-.213c4.607-.529 8.253-1.39 12.215-3.975 2.806-3.793 3.37-6.464 3.331-11.14l-.011-3.687-.064-3.978c-.013-1.39-.025-2.782-.036-4.173-.142-14.348-.656-28.686-1.23-43.022-.144-3.644-.282-7.29-.42-10.934-.261-6.845-.528-13.69-.797-20.534-.307-7.817-.607-15.634-.907-23.45-.614-16.028-1.237-32.055-1.866-48.082a2271073.308 2271073.308 0 0 0-17.608 40.639 91379.441 91379.441 0 0 1-34.258 78.964 56730.253 56730.253 0 0 1-9.298 21.41l-1.19 2.74-1.162 2.68c-.747 1.714-1.496 3.428-2.247 5.14a561.652 561.652 0 0 0-5.402 12.683l-1.065 2.541a255.939 255.939 0 0 0-1.948 4.775c-.902 2.125-.902 2.125-2.822 5.428-2.734.985-2.734.985-5 1-5.048-7.447-8.578-15.511-12.25-23.688l-2.111-4.662c-1.1-2.426-2.2-4.853-3.298-7.28-2.513-5.556-5.05-11.1-7.607-16.636l-1.06-2.295-2.116-4.585c-4.726-10.238-9.418-20.489-13.976-30.803l-1.093-2.472c-1.72-3.895-3.434-7.792-5.137-11.694-3.44-7.842-7.068-15.455-11.352-22.885l-1.68 2.842c-2.071 3.501-4.144 7.001-6.218 10.5l-2.683 4.533c-1.289 2.18-2.58 4.36-3.872 6.54l-1.197 2.026c-1.77 2.981-3.548 5.836-5.572 8.658-2.9 4.73-2.903 9.591-2.94 15.039l-.028 3.611-.013 3.864-.009 1.989c-.015 3.473-.024 6.945-.028 10.418-.006 3.564-.03 7.128-.058 10.691-.019 2.762-.024 5.524-.026 8.286a784.37 784.37 0 0 1-.042 5.837c-.068 11.067-.068 11.067 4.712 20.744 4.926 4.38 10.088 5.645 16.466 6.547l3.52.508L501 383v5h-63l-1-5 2.414-.332c9.78-1.392 9.78-1.392 17.774-6.856 5.226-8.11 5.96-16.498 6.128-25.925l.063-2.938c.066-3.087.125-6.174.183-9.262l.131-6.29c.108-5.133.207-10.265.307-15.397l-13 22c-8.235-4.492-16.21-9.126-24.076-14.203l-2.545-1.578-2.264-1.44c-2.106-1.021-2.106-1.021-4.245-.105-3.004 2.13-4.76 5.162-6.745 8.201-.969 1.446-1.94 2.891-2.91 4.336l-1.563 2.339c-2.935 4.353-5.952 8.65-8.964 12.95l-1.74 2.496A463.027 463.027 0 0 1 385 366c-2.438-.813-2.438-.813-5-2l-1-3a85.031 85.031 0 0 1 4.563-6.938l1.485-2.102c1.07-1.514 2.145-3.026 3.224-4.535 2.413-3.386 4.79-6.798 7.17-10.208 1.729-2.479 3.463-4.954 5.199-7.428 3.457-4.927 6.908-9.858 10.359-14.789l-2.034-1.365-4.802-3.225c-2.091-1.42-2.091-1.42-4.164-2.41.583-4.192 2.002-7.042 4.219-10.629l2.052-3.347 2.229-3.587 2.282-3.713c1.59-2.59 3.183-5.176 4.778-7.761 3.576-5.8 7.11-11.626 10.645-17.451 1.085-1.788 2.172-3.574 3.26-5.36 3.25-5.346 6.473-10.696 9.535-16.152a2866.84 2866.84 0 0 0-34-21c1.434-3.861 3.231-7.298 5.316-10.848l.996-1.7c1.08-1.84 2.165-3.677 3.25-5.514l2.273-3.86a2659.585 2659.585 0 0 1 16.353-27.328l1.063-1.759c4.1-6.77 8.287-13.454 12.749-19.991 3.868 1.427 7.257 3.238 10.781 5.371l3.301 1.99 3.418 2.077 3.418 2.064c2.1 1.269 4.2 2.54 6.299 3.812 2.59 1.57 5.185 3.13 7.783 4.686 2.385-2.447 2.385-2.447 4-6-1.074-7.292-5.47-14.413-8.688-20.938-1.007-2.049-2.011-4.1-3.011-6.152l-1.339-2.714C472 130 472 130 472 128l-79 1-8 19.25-2.469 5.935a2609.498 2609.498 0 0 0-11.031 26.924l-1.025 2.534-.944 2.356-.826 2.056c-2.583 7.124-3.116 15.448-.267 22.507 6.661 6.337 15.027 7.422 23.875 8l3.8.254L399 219l1 5h-79l-1-3c2.565-2.565 4.063-2.433 7.625-2.875 8.767-1.391 14.493-4.073 20.203-11.012 11.345-16.261 17.93-35.423 25.206-53.724 3.495-8.763 7.16-17.453 10.841-26.139 1.343-3.175 2.686-6.351 4.027-9.527l1.017-2.407c3.88-9.193 7.701-18.41 11.519-27.629l1.057-2.552c3.268-7.89 6.533-15.783 9.796-23.676 1.91-4.621 3.822-9.242 5.734-13.863 1.061-2.565 2.12-5.13 3.18-7.697A1322.978 1322.978 0 0 1 433 10Zm-4 30c-5.056 12.235-10.11 24.47-15.162 36.706-2.393 5.795-4.787 11.59-7.184 17.385l-3.93 9.514c-.607 1.471-1.215 2.942-1.824 4.412-.837 2.02-1.671 4.043-2.505 6.065l-1.411 3.413c-1.045 2.212-1.045 2.212-.984 3.505h72a113.686 113.686 0 0 0-5.457-13.477l-1.029-2.167c-.728-1.533-1.458-3.065-2.189-4.597-1.929-4.042-3.847-8.09-5.766-12.138a2824.48 2824.48 0 0 1-11.809-25.184l-1.55-3.34A2559.993 2559.993 0 0 1 431 40h-2Z"/><path fill="#3F3D3C" d="M433 10h5c9.453 19.966 18.872 39.946 28.146 59.996 2.162 4.67 4.328 9.34 6.495 14.008 3.681 7.935 7.36 15.872 11.033 23.811 2.044 4.416 4.09 8.831 6.139 13.244 1.294 2.792 2.584 5.585 3.875 8.379.45.97.902 1.939 1.367 2.938l1.207 2.62 1.03 2.224C498 139 498 139 498 141h2l.837-2.223c1.082-2.583 2.294-4.826 3.765-7.203l1.484-2.412 1.539-2.475 1.563-2.533c1.267-2.053 2.538-4.105 3.812-6.154 5.44 2.06 10.257 4.917 15.25 7.875l2.797 1.605 2.656 1.575 2.427 1.421C538 132 538 132 538.878 134.006c.211 3.452-2.268 5.729-4.316 8.306-1.026 1.345-2.05 2.691-3.07 4.04l-1.7 2.239c-3.313 4.454-6.45 9.03-9.605 13.596a53780.23 53780.23 0 0 1-6.184 8.925c-3.072 4.43-6.16 8.847-9.253 13.263a5209.884 5209.884 0 0 1-14.212 20.193A4090.639 4090.639 0 0 0 479 221a4842.944 4842.944 0 0 1-14.46 20.566A4106.606 4106.606 0 0 0 453 258c-4.32 6.177-8.65 12.346-13 18.5a6476.858 6476.858 0 0 0-13.375 19l-1.73 2.463A705.7 705.7 0 0 0 414 314c-3.753-.68-6.506-1.638-9.813-3.563l-2.394-1.378c-.592-.35-1.183-.7-1.793-1.059.583-4.192 2.002-7.042 4.219-10.629l2.052-3.347 2.229-3.587 2.282-3.713c1.59-2.59 3.183-5.176 4.778-7.761 3.576-5.8 7.11-11.626 10.645-17.451 1.085-1.788 2.172-3.574 3.26-5.36 3.25-5.346 6.473-10.696 9.535-16.152a2866.84 2866.84 0 0 0-34-21c1.434-3.861 3.231-7.298 5.316-10.848l.996-1.7c1.08-1.84 2.165-3.677 3.25-5.514l2.273-3.86a2659.585 2659.585 0 0 1 16.353-27.328l1.063-1.759c4.1-6.77 8.287-13.454 12.749-19.991 3.868 1.427 7.257 3.238 10.781 5.371l3.301 1.99 3.418 2.077 3.418 2.064c2.1 1.269 4.2 2.54 6.299 3.812 2.59 1.57 5.185 3.13 7.783 4.686 2.385-2.447 2.385-2.447 4-6-1.074-7.292-5.47-14.413-8.688-20.938-1.007-2.049-2.011-4.1-3.011-6.152l-1.339-2.714C472 130 472 130 472 128l-79 1-8 19.25-2.469 5.935a2609.498 2609.498 0 0 0-11.031 26.924l-1.025 2.534-.944 2.356-.826 2.056c-2.583 7.124-3.116 15.448-.267 22.507 6.661 6.337 15.027 7.422 23.875 8l3.8.254L399 219l1 5h-79l-1-3c2.565-2.565 4.063-2.433 7.625-2.875 8.767-1.391 14.493-4.073 20.203-11.012 11.345-16.261 17.93-35.423 25.206-53.724 3.495-8.763 7.16-17.453 10.841-26.139 1.343-3.175 2.686-6.351 4.027-9.527l1.017-2.407c3.88-9.193 7.701-18.41 11.519-27.629l1.057-2.552c3.268-7.89 6.533-15.783 9.796-23.676 1.91-4.621 3.822-9.242 5.734-13.863 1.061-2.565 2.12-5.13 3.18-7.697A1322.978 1322.978 0 0 1 433 10Zm-4 30c-5.056 12.235-10.11 24.47-15.162 36.706-2.393 5.795-4.787 11.59-7.184 17.385l-3.93 9.514c-.607 1.471-1.215 2.942-1.824 4.412-.837 2.02-1.671 4.043-2.505 6.065l-1.411 3.413c-1.045 2.212-1.045 2.212-.984 3.505h72a113.686 113.686 0 0 0-5.457-13.477l-1.029-2.167c-.728-1.533-1.458-3.065-2.189-4.597-1.929-4.042-3.847-8.09-5.766-12.138a2824.48 2824.48 0 0 1-11.809-25.184l-1.55-3.34A2559.993 2559.993 0 0 1 431 40h-2Z"/><path fill="#C7C9CA" d="M657.676 177.61c.925.005 1.85.01 2.803.017 2.945.022 5.889.072 8.833.123 2.001.02 4.002.038 6.002.055 4.896.044 9.79.113 14.686.195v4c-2.36 2.36-8.76 1.8-12.123 2.074-4.938.477-8.5 1.42-12.877 3.926l-3 1c-3.656 9.75-3.034 19.93-2.579 30.154a4330.542 4330.542 0 0 0 .656 15.68c.173 4.015.338 8.03.503 12.044.28 6.749.565 13.497.853 20.245.404 9.462.799 18.925 1.192 28.388a47401.674 47401.674 0 0 0 1.03 24.58c-1.578 29.878-1.578 29.878 5.345 56.909 5.625 4.083 10.607 4.778 17.438 5.25l2.794.234c2.256.187 4.51.359 6.768.516l-1 5h-75v-5c1.085-.11 2.17-.22 3.29-.332l4.335-.48 2.16-.213c4.607-.529 8.253-1.39 12.215-3.975 2.806-3.793 3.37-6.464 3.331-11.14l-.011-3.687-.064-3.978c-.013-1.39-.025-2.782-.036-4.173-.142-14.348-.656-28.686-1.23-43.022-.144-3.644-.282-7.29-.42-10.934-.261-6.845-.528-13.69-.797-20.534-.307-7.817-.607-15.634-.907-23.45-.614-16.028-1.237-32.055-1.866-48.082a2271073.308 2271073.308 0 0 0-17.608 40.639 91379.441 91379.441 0 0 1-34.258 78.964 56730.253 56730.253 0 0 1-9.298 21.41l-1.19 2.74-1.162 2.68c-.747 1.714-1.496 3.428-2.247 5.14a561.652 561.652 0 0 0-5.402 12.683l-1.065 2.541a255.939 255.939 0 0 0-1.948 4.775c-.902 2.125-.902 2.125-2.822 5.428-2.734.985-2.734.985-5 1-5.048-7.447-8.578-15.511-12.25-23.688l-2.111-4.662a8187.8 8187.8 0 0 1-3.298-7.28 2330.38 2330.38 0 0 0-8.666-18.93 2969.058 2969.058 0 0 1-22.323-49.378l-.945-2.136a848.569 848.569 0 0 1-1.804-4.117c-1.406-3.215-2.866-6.363-4.51-9.464-4.21-8.164-4.21-8.164-3.874-11.553.848-1.98 1.828-3.475 3.156-5.167l1.137-1.668a122.822 122.822 0 0 1 2.311-3.276c1.942-2.774 3.536-5.721 5.177-8.681 3.08 1.54 3.53 4.01 4.914 7.121l.868 1.934a1222.45 1222.45 0 0 1 1.864 4.177c1.68 3.782 3.38 7.554 5.08 11.327l1.068 2.373C527.434 272 531.21 280.002 535 288c6.085 12.855 12.022 25.77 17.885 38.728 4.284 9.466 8.635 18.897 13.115 28.272 4.332-8.354 8.174-16.85 11.832-25.516 1.628-3.851 3.269-7.697 4.91-11.543l1.046-2.45c3.963-9.276 8.023-18.51 12.087-27.741l4.57-10.387 1.145-2.6a7631.423 7631.423 0 0 0 11.091-25.371l3.183-7.305c3.04-6.972 6.076-13.945 9.1-20.924 1.256-2.896 2.515-5.79 3.774-8.685.577-1.326 1.151-2.653 1.725-3.98 2.924-6.77 5.93-13.502 9.123-20.15l1.619-3.402c4.371-7.173 8.659-7.517 16.47-7.337ZM433 10h5c9.453 19.966 18.872 39.946 28.146 59.996 2.162 4.67 4.328 9.34 6.495 14.008 3.681 7.935 7.36 15.872 11.033 23.811 2.044 4.416 4.09 8.831 6.139 13.244 1.294 2.792 2.584 5.585 3.875 8.379.45.97.902 1.939 1.367 2.938l1.207 2.62 1.03 2.224C498 139 498 139 498 141l2 1-12 20c-2.53-3.373-4.14-6.158-5.883-9.938l-1.597-3.46-1.645-3.602-1.668-3.602c-4.075-8.871-4.075-8.871-5.207-13.398l-79 1-8 19.25-2.469 5.935a2609.498 2609.498 0 0 0-11.031 26.924l-1.025 2.534-.944 2.356-.826 2.056c-2.583 7.124-3.116 15.448-.267 22.507 6.661 6.337 15.027 7.422 23.875 8l3.8.254L399 219l1 5h-79l-1-3c2.565-2.565 4.063-2.433 7.625-2.875 8.767-1.391 14.493-4.073 20.203-11.012 11.345-16.261 17.93-35.423 25.206-53.724 3.495-8.763 7.16-17.453 10.841-26.139 1.343-3.175 2.686-6.351 4.027-9.527l1.017-2.407c3.88-9.193 7.701-18.41 11.519-27.629l1.057-2.552c3.268-7.89 6.533-15.783 9.796-23.676 1.91-4.621 3.822-9.242 5.734-13.863 1.061-2.565 2.12-5.13 3.18-7.697A1322.978 1322.978 0 0 1 433 10Zm-4 30c-5.056 12.235-10.11 24.47-15.162 36.706-2.393 5.795-4.787 11.59-7.184 17.385l-3.93 9.514c-.607 1.471-1.215 2.942-1.824 4.412-.837 2.02-1.671 4.043-2.505 6.065l-1.411 3.413c-1.045 2.212-1.045 2.212-.984 3.505h72a113.686 113.686 0 0 0-5.457-13.477l-1.029-2.167c-.728-1.533-1.458-3.065-2.189-4.597-1.929-4.042-3.847-8.09-5.766-12.138a2824.48 2824.48 0 0 1-11.809-25.184l-1.55-3.34A2559.993 2559.993 0 0 1 431 40h-2Z"/><path fill="#C4C6C7" d="m588 63 6 2c0 4.498 0 4.498-2.133 7.406l-1.422 1.973-1.57 2.121a6399.32 6399.32 0 0 0-3.32 4.594l-1.767 2.43C580.81 87.647 577.908 91.825 575 96a4078.083 4078.083 0 0 1-14.8 21.037 708.698 708.698 0 0 0-6.735 9.662l-1.204 1.76a1462.994 1462.994 0 0 0-3.128 4.611 85.396 85.396 0 0 1-4.985 6.223c-3.546 4.075-6.586 8.45-9.648 12.894l-3.71 5.344-1.902 2.746c-2.99 4.313-6.002 8.612-9.013 12.91l-1.764 2.52a4800.948 4800.948 0 0 1-12.577 17.867C499.326 202.36 493.165 211.182 487 220a7173.064 7173.064 0 0 1-21.461 30.567A4098.61 4098.61 0 0 0 454 267a4362.246 4362.246 0 0 1-13 18.5 5310.055 5310.055 0 0 0-13.625 19.375l-1.832 2.615a432431697.722 432431697.722 0 0 1-3.221 4.603A326.402 326.402 0 0 0 419 317l1 2-2.117 1.98c-3.447 3.453-6.19 7.363-9.008 11.332l-1.71 2.387c-4.229 5.926-8.365 11.913-12.467 17.927A287.676 287.676 0 0 1 385 366c-2.438-.813-2.438-.813-5-2l-1-3a85.01 85.01 0 0 1 4.563-6.938l1.487-2.104c1.072-1.515 2.147-3.027 3.226-4.537 2.394-3.362 4.747-6.751 7.104-10.139 2.34-3.36 4.695-6.709 7.053-10.056.98-1.393 1.959-2.787 2.935-4.183a913.339 913.339 0 0 1 3.382-4.793l1.797-2.547L412 314h2l.637-1.992c1.869-4.124 4.48-7.511 7.175-11.133A627.337 627.337 0 0 0 435.5 281.5c4.799-7.073 9.735-14.028 14.763-20.94 3.975-5.473 7.836-11.015 11.65-16.6 3.745-5.48 7.56-10.907 11.396-16.324A3489.87 3489.87 0 0 0 485 211a4830.83 4830.83 0 0 1 14.46-20.566A4122.457 4122.457 0 0 0 511 174c4.45-6.36 8.903-12.718 13.375-19.063l1.488-2.112c3.435-4.864 6.94-9.67 10.516-14.43 1.703-2.396 1.703-2.396 3.004-5.22 1.976-3.88 4.385-7.275 6.93-10.8l3.238-4.54 1.71-2.39c2.939-4.13 5.837-8.289 8.739-12.445a4194.97 4194.97 0 0 1 13.313-18.938A2062.858 2062.858 0 0 0 588 63Z"/><path fill="#CDCECF" d="M469 500h10l4.813 9.125 1.369 2.594c2.32 4.404 4.615 8.816 6.818 13.281l4.813-9.125 1.369-2.594c2.32-4.404 4.615-8.816 6.818-13.281h11v43h-8l-2-25-10 21h-7l-11-22-1 26h-8v-43Z"/><path fill="#C8C9CA" d="M473 299h1l-.02 2.445c-.06 7.635-.106 15.27-.135 22.905-.016 3.924-.037 7.848-.071 11.773-.033 3.793-.05 7.586-.059 11.38a577.537 577.537 0 0 1-.032 4.322c-.472 12.634-.472 12.634 4.663 23.748 4.918 4.39 10.09 5.65 16.466 6.552l3.52.508L501 383v5h-63l-1-5 2.414-.332c9.78-1.392 9.78-1.392 17.774-6.856 5.247-8.142 5.953-16.505 6.058-25.968l.1-6.035a3612 3612 0 0 0 .13-9.48c.04-3.058.092-6.115.145-9.173l.026-2.857c.139-7.404 1.905-11.857 5.916-18.111l1.878-2.958L473 299Z"/><path fill="#CCCECF" d="M593 500c10 0 10 0 12.54 1.833l1.796 2.55 2.035 2.789 2.004 2.953 2.074 2.883c3.289 4.597 6.415 9.288 9.551 13.992l1-27h9v43c-10 0-10 0-13.61-3.438a127.478 127.478 0 0 1-3.14-4.562l-1.59-2.254a227.1 227.1 0 0 1-2.944-4.277c-2.474-3.56-5.115-7.001-7.716-10.469l-1 25h-10v-43Z"/><path fill="#CBCDCE" d="M292 500c9 0 9 0 11.212 1.617l1.518 2.258 1.745 2.488 1.712 2.637 3.481 5.063 1.509 2.285c2.495 3.63 5.18 7.128 7.823 10.652l1-27h9v43c-10 0-10 0-12.325-1.617l-1.503-2.258-1.735-2.488L313.75 534l-3.453-5.063-1.49-2.285c-2.479-3.638-5.166-7.13-7.807-10.652l-1 27h-8v-43Z"/><path fill="#CCCECE" d="m732 500 12.563-.25 3.92-.11c7.895-.076 12.428.68 18.392 6.048 2.478 5.093 2.745 10.333.938 15.687-1.357 3.125-2.705 5.02-5.813 6.625h-2l1.969 3.027 2.531 3.91 1.3 1.999c3.2 4.95 3.2 4.95 3.2 6.064-3.567.79-6.466 1.03-10 0-2.327-2.93-4.046-6.018-5.906-9.262-1.85-2.92-1.85-2.92-4.813-3.758-3.065-.318-3.065-.318-7.281.02v13h-9v-43Zm9 7v16l6.188.188 3.48.105c3.66-.322 5.476-1.012 8.332-3.293.943-3.457 1.34-5.854.313-9.313-1.65-2.12-2.797-2.717-5.313-3.687-3.28-.241-3.28-.241-6.75-.125L741 507Z"/><path fill="#CACCCC" d="M248.5 501.5c5.923 3.698 10.387 8.576 12.063 15.438.832 6.257.37 11.227-3.239 16.519-4.993 6.001-9.04 9.126-16.816 9.883-6.72.273-12.372.432-17.86-3.774-8.4-7.981-8.4-7.981-8.851-14.492-.109-7.854.216-12.59 5.453-18.699 8.249-7.124 18.746-9.48 29.25-4.875ZM223 514.875c-1.608 5.025-1.798 9.05.563 13.813 2.402 3.742 5.238 5.87 9.437 7.312 4.996.954 9.187.17 13.453-2.61 3.432-3.084 5.404-6.887 5.668-11.511-.378-4.254-1.397-7.61-4.121-10.879-4.238-3.074-7.524-4.755-12.945-4.45-5.25 1.149-9.026 3.97-12.055 8.325Z"/><path fill="#C9CACB" d="m148 500 12.563-.25 3.92-.11c6.733-.065 11.12.183 16.517 4.36 3.389 4.7 3.754 9.39 3 15-1.408 3.62-2.906 6.579-6 9h-2l1.969 3.027 2.531 3.91 1.3 1.999c3.2 4.95 3.2 4.95 3.2 6.064-3.54.705-6.49.942-10 0-3.179-3.402-7-8.152-7-13h-12v13h-8v-43Zm8 7v16l6.688.188 3.761.105c3.768-.31 5.579-1.016 8.551-3.293 1.405-2.81 1.249-4.888 1-8-1.78-3.136-2.523-3.841-6-5-4.67-.136-9.327-.043-14 0Z"/><path fill="#CDCFCF" d="M814 500h10c1.923 4.23 3.844 8.462 5.762 12.695.65 1.436 1.302 2.871 1.955 4.306C842 539.618 842 539.618 842 543h-10l-3-9-20 1-4 8h-10c6.112-14.438 12.457-28.752 19-43Zm4 11c-1.004 2.29-2.004 4.582-3 6.875l-.867 1.973c-1.592 3.448-1.592 3.448-2.133 7.152h14c-.95-2.483-1.91-4.96-2.875-7.438l-.816-2.142c-1.29-3.92-1.29-3.92-4.309-6.42Z"/><path fill="#C9CBCC" d="M667 500h32v7h-23v11h21v7h-21v11h24v7h-33v-43Z"/><path fill="#CDCFD0" d="M955.375 501.25C958 503 958 503 959.063 504.938c-.076 2.48-.785 3.956-2.063 6.062-2.856-.451-5.693-.933-8.52-1.547l-2.668-.578-2.542-.57c-2.43-.496-2.43-.496-5.27.695-.052 2.423-.052 2.423 1 5 2.37 1.234 4.502 2.12 7 3 11.25 4.5 11.25 4.5 14 10 .461 4.615.746 7.641-2.188 11.375-5.704 5.324-11.457 5.094-18.984 5.027-5.365-.564-9.364-2.46-13.828-5.402 0-3.767.235-4.912 2-8 2.9.414 4.833.892 7.313 2.5 3.71 2.07 6.43 2.297 10.687 2.5 2.424-.788 2.424-.788 4-2 .114-2.43.114-2.43-1-5a54.11 54.11 0 0 0-7.75-2.938c-6.221-1.851-9.612-3.534-13.25-9.062-1.037-3.774-.323-7.193 1.125-10.813 6.219-7.255 18.808-7.131 27.25-3.937Z"/><path fill="#CCCDCE" d="m392.938 502 3.062 2c-.75 2.938-.75 2.938-2 6-2.382 1.036-3.639 1.1-6.148.406l-2.227-.906c-3.922-1.433-6.516-1.659-10.625-.5l-1 3c2.909 4.363 7.257 5.037 12.059 6.574 4.657 1.604 7.243 3.08 9.941 7.426.939 3.22 1.156 5.29.438 8.563-2.25 3.812-5.455 6.446-9.438 8.437-9.017.789-17.559.87-25-5l-1-3c1.438-2.688 1.438-2.688 3-5l2 .813 3 1.187 1.797.836c5.372 2.342 9.488 2.262 15.203 1.164v-5l-1.652-.734c-1.589-.706-3.176-1.415-4.762-2.125a228.569 228.569 0 0 0-5.047-2.157c-8.453-3.538-8.453-3.538-10.539-6.984-.783-4.852-.744-8.677 1.688-13 6.967-6.026 19.235-6.05 27.25-2Z"/><path fill="#CACCCC" d="M23 500h10c2.568 5.8 5.132 11.603 7.69 17.407.872 1.976 1.745 3.95 2.62 5.925a4672.54 4672.54 0 0 1 3.752 8.504l1.194 2.686 1.092 2.487.969 2.194C51 541 51 541 51 543h-9c-3-5.625-3-5.625-3-9H17l-3 9H5c1.904-5.936 4.025-11.631 6.574-17.316l.996-2.249c1.035-2.334 2.076-4.666 3.117-6.997A6263.294 6263.294 0 0 1 23 500Zm4 10c-1.007 2.268-2.006 4.54-3 6.813l-.867 1.947C21.863 521.678 21 523.783 21 527h14c-1.88-6.016-4.06-11.425-7-17h-1Z"/><path fill="#CCCDCE" d="M111.75 501.75c3.14 2.174 3.832 2.942 5.25 6.25l-4 4c-4.76-1.851-4.76-1.851-6.813-3.125-3.382-1.353-6.636-1.436-10.187-.875-5.022 2.653-8.144 5.311-9.875 10.75-.21 5.474 1.412 9.572 5 13.688C95.07 534.58 98.51 535.35 103 535c2.261-.843 4.213-1.839 6.273-3.09C111 531 111 531 114 531c1.688 2 1.688 2 3 4-1.64 3.828-3.546 5.466-7.39 7.234-6.678 1.96-14.68 2.06-21.11-.797-4.949-3.005-8.393-7.123-10.875-12.312C76.231 522.157 76.184 515.217 80 509c8.194-9.01 20.164-12.65 31.75-7.25Z"/><path fill="#CDCECF" d="M871 500h9v36h19v7h-28v-43Z"/><path fill="#CECFD0" d="M550 500h9v43h-9v-43Z"/><path fill="#F9F9F9" d="M601 513c3 3 3 3 3.249 5.82l-.175 3.38-.166 3.661-.22 3.827-.186 3.86A1096.22 1096.22 0 0 1 603 543h-2v-30Z"/><path fill="#DEDFDF" d="m223 503 2 1-8 8c0-3 0-3 2.438-5.625L222 504l1-1Z"/></svg>