<svg xmlns="http://www.w3.org/2000/svg" width="973" height="544"><path fill="#FEFEFE" d="M436 4h5c9.453 19.966 18.872 39.946 28.146 59.996 2.162 4.67 4.328 9.34 6.495 14.008 3.681 7.935 7.36 15.872 11.033 23.811 2.044 4.416 4.09 8.831 6.139 13.244 1.294 2.792 2.584 5.585 3.875 8.379.45.97.902 1.939 1.367 2.938l1.207 2.62 1.03 2.224C501 133 501 133 501 135h2l.837-2.223c1.082-2.583 2.294-4.826 3.765-7.203l1.484-2.412 1.539-2.475 1.563-2.533c1.267-2.053 2.538-4.105 3.812-6.154 3.67 1.37 6.939 3.034 10.3 5.04l2.96 1.757 3.053 1.828 3.11 1.852c2.528 1.504 5.053 3.012 7.577 4.523l.868-1.8c1.676-3.257 3.795-6.2 5.882-9.2l1.455-2.104a2990.26 2990.26 0 0 1 6.488-9.325 5413.717 5413.717 0 0 1 20.093-28.592C582.234 69.683 586.627 63.349 591 57l6 2c0 4.498 0 4.498-2.133 7.406l-1.422 1.973-1.57 2.121a6399.32 6399.32 0 0 0-3.32 4.594l-1.767 2.43C583.81 81.647 580.908 85.825 578 90a4140.93 4140.93 0 0 1-13.313 18.938 2299.809 2299.809 0 0 0-10.875 15.5l-2.167 3.12C550.01 129.87 550.01 129.87 549 132l2.074.742c3.455 1.486 6.567 3.382 9.739 5.383l1.81 1.129c1.461.912 2.92 1.828 4.377 2.746-.631 3.212-1.766 5.482-3.54 8.223l-1.507 2.38a1289.427 1289.427 0 0 1-3.18 4.93l-1.5 2.377-1.393 2.16c-1.21 2.074-1.21 2.074.12 4.93 2.495 1.806 2.495 1.806 5.617 3.547l1.733 1.013a891.157 891.157 0 0 0 5.525 3.19c4.719 2.733 9.425 5.485 14.125 8.25l3.337 1.936 3.046 1.83 2.707 1.602L594 190c0 4.424-.71 5.68-2.938 9.383l-1.94 3.25-2.122 3.492-2.161 3.6c-5.794 9.64-11.683 19.224-17.609 28.783-3.17 5.116-6.292 10.239-9.23 15.492a60.068 60.068 0 0 1-9.773-4.723l-2.73-1.62-2.872-1.72-2.946-1.752A4229.993 4229.993 0 0 1 531 239l-2.492-1.49c-4.174-2.496-8.343-5-12.508-7.51l-1 2c.784 2.109 1.68 4.175 2.621 6.219l.88 1.93c.972 2.12 1.954 4.235 2.937 6.351l2.056 4.477c5.422 11.786 10.957 23.52 16.504 35.247 5.41 11.45 10.666 22.967 15.887 34.504 4.284 9.466 8.635 18.897 13.115 28.272 4.332-8.354 8.174-16.85 11.832-25.516 1.628-3.851 3.269-7.697 4.91-11.543l1.046-2.45c3.963-9.276 8.023-18.51 12.087-27.741a125060.174 125060.174 0 0 0 5.715-12.987 7631.423 7631.423 0 0 0 11.091-25.371l3.183-7.305c3.04-6.972 6.076-13.945 9.1-20.924 1.256-2.896 2.515-5.79 3.774-8.685.577-1.326 1.151-2.653 1.725-3.98 2.924-6.77 5.93-13.502 9.123-20.15l1.619-3.402c2.036-3.342 3.374-5.02 6.795-6.946 3.237-.522 6.405-.466 9.676-.39.925.005 1.85.01 2.803.017 2.945.022 5.889.072 8.833.123 2.001.02 4.002.038 6.002.055 4.896.044 9.79.113 14.686.195v4c-2.36 2.36-8.76 1.8-12.123 2.074-4.938.477-8.5 1.42-12.877 3.926l-3 1c-3.656 9.75-3.034 19.93-2.579 30.154a4330.542 4330.542 0 0 0 .656 15.68c.173 4.015.338 8.03.503 12.044.28 6.749.565 13.497.853 20.245.404 9.462.799 18.925 1.192 28.388a47401.674 47401.674 0 0 0 1.03 24.58c-1.578 29.878-1.578 29.878 5.345 56.909 5.625 4.083 10.607 4.778 17.438 5.25l2.794.234c2.256.187 4.51.359 6.768.516l-1 5h-75v-5c1.085-.11 2.17-.22 3.29-.332l4.335-.48 2.16-.213c4.607-.529 8.253-1.39 12.215-3.975 2.806-3.793 3.37-6.464 3.331-11.14l-.011-3.687-.064-3.978c-.013-1.39-.025-2.782-.036-4.173-.142-14.348-.656-28.686-1.23-43.022-.144-3.644-.282-7.29-.42-10.934-.261-6.845-.528-13.69-.797-20.534-.307-7.817-.607-15.634-.907-23.45-.614-16.028-1.237-32.055-1.866-48.082a2271073.308 2271073.308 0 0 0-17.608 40.639 91379.441 91379.441 0 0 1-34.258 78.964 56730.253 56730.253 0 0 1-9.298 21.41l-1.19 2.74-1.162 2.68c-.747 1.714-1.496 3.428-2.247 5.14a561.652 561.652 0 0 0-5.402 12.683l-1.065 2.541a255.939 255.939 0 0 0-1.948 4.775c-.902 2.125-.902 2.125-2.822 5.428-2.734.985-2.734.985-5 1-5.048-7.447-8.578-15.511-12.25-23.688l-2.111-4.662c-1.1-2.426-2.2-4.853-3.298-7.28-2.513-5.556-5.05-11.1-7.607-16.636l-1.06-2.295-2.116-4.585c-4.726-10.238-9.418-20.489-13.976-30.803l-1.093-2.472c-1.72-3.895-3.434-7.792-5.137-11.694-3.44-7.842-7.068-15.455-11.352-22.885l-1.68 2.842c-2.071 3.501-4.144 7.001-6.218 10.5l-2.683 4.533c-1.289 2.18-2.58 4.36-3.872 6.54l-1.197 2.026c-1.77 2.981-3.548 5.836-5.572 8.658-2.9 4.73-2.903 9.591-2.94 15.039l-.028 3.611-.013 3.864-.009 1.989c-.015 3.473-.024 6.945-.028 10.418-.006 3.564-.03 7.128-.058 10.691-.019 2.762-.024 5.524-.026 8.286a784.37 784.37 0 0 1-.042 5.837c-.068 11.067-.068 11.067 4.712 20.744 4.926 4.38 10.088 5.645 16.466 6.547l3.52.508L504 377v5h-63l-1-5 2.414-.332c9.78-1.392 9.78-1.392 17.774-6.856 5.226-8.11 5.96-16.498 6.128-25.925l.063-2.938c.066-3.087.125-6.174.183-9.262l.131-6.29c.108-5.133.207-10.265.307-15.397l-13 22c-8.235-4.492-16.21-9.126-24.076-14.203l-2.545-1.578-2.264-1.44c-2.106-1.021-2.106-1.021-4.245-.105-3.004 2.13-4.76 5.162-6.745 8.201-.969 1.446-1.94 2.891-2.91 4.336l-1.563 2.339c-2.935 4.353-5.952 8.65-8.964 12.95l-1.74 2.496A463.027 463.027 0 0 1 388 360c-2.438-.813-2.438-.813-5-2l-1-3a85.031 85.031 0 0 1 4.563-6.938l1.485-2.102c1.07-1.514 2.145-3.026 3.224-4.535 2.413-3.386 4.79-6.798 7.17-10.208 1.729-2.479 3.463-4.954 5.199-7.428 3.457-4.927 6.908-9.858 10.359-14.789l-2.034-1.365-4.802-3.225c-2.091-1.42-2.091-1.42-4.164-2.41.583-4.192 2.002-7.042 4.219-10.629l2.052-3.347 2.229-3.587 2.282-3.713c1.59-2.59 3.183-5.176 4.778-7.761 3.576-5.8 7.11-11.626 10.645-17.451 1.085-1.788 2.172-3.574 3.26-5.36 3.25-5.346 6.473-10.696 9.535-16.152a2866.84 2866.84 0 0 0-34-21c1.434-3.861 3.231-7.298 5.316-10.848l.996-1.7c1.08-1.84 2.165-3.677 3.25-5.514l2.273-3.86a2659.585 2659.585 0 0 1 16.353-27.328l1.063-1.759c4.1-6.77 8.287-13.454 12.749-19.991 3.868 1.427 7.257 3.238 10.781 5.371l3.301 1.99 3.418 2.077 3.418 2.064c2.1 1.269 4.2 2.54 6.299 3.812 2.59 1.57 5.185 3.13 7.783 4.686 2.385-2.447 2.385-2.447 4-6-1.074-7.292-5.47-14.413-8.688-20.938-1.007-2.049-2.011-4.1-3.011-6.152l-1.339-2.714C475 124 475 124 475 122l-79 1-8 19.25-2.469 5.935a2609.498 2609.498 0 0 0-11.031 26.924l-1.025 2.534-.944 2.356-.826 2.056c-2.583 7.124-3.116 15.448-.267 22.507 6.661 6.337 15.027 7.422 23.875 8l3.8.254L402 213l1 5h-79l-1-3c2.565-2.565 4.063-2.433 7.625-2.875 8.767-1.391 14.493-4.073 20.203-11.012 11.345-16.261 17.93-35.423 25.206-53.724 3.495-8.763 7.16-17.453 10.841-26.139 1.343-3.175 2.686-6.351 4.027-9.527l1.017-2.407c3.88-9.193 7.701-18.41 11.519-27.629l1.057-2.552c3.268-7.89 6.533-15.783 9.796-23.676 1.91-4.621 3.822-9.242 5.734-13.863 1.061-2.565 2.12-5.13 3.18-7.697A1322.978 1322.978 0 0 1 436 4Zm-4 30c-5.056 12.235-10.11 24.47-15.162 36.706-2.393 5.795-4.787 11.59-7.184 17.385l-3.93 9.514c-.607 1.471-1.215 2.942-1.824 4.412-.837 2.02-1.671 4.043-2.505 6.065l-1.411 3.413c-1.045 2.212-1.045 2.212-.984 3.505h72a113.686 113.686 0 0 0-5.457-13.477l-1.029-2.167c-.728-1.533-1.458-3.065-2.189-4.597-1.929-4.042-3.847-8.09-5.766-12.138a2824.48 2824.48 0 0 1-11.809-25.184l-1.55-3.34A2559.993 2559.993 0 0 1 434 34h-2Z"/><path fill="#FEFEFE" d="M436 4h5c9.453 19.966 18.872 39.946 28.146 59.996 2.162 4.67 4.328 9.34 6.495 14.008 3.681 7.935 7.36 15.872 11.033 23.811 2.044 4.416 4.09 8.831 6.139 13.244 1.294 2.792 2.584 5.585 3.875 8.379.45.97.902 1.939 1.367 2.938l1.207 2.62 1.03 2.224C501 133 501 133 501 135h2l.837-2.223c1.082-2.583 2.294-4.826 3.765-7.203l1.484-2.412 1.539-2.475 1.563-2.533c1.267-2.053 2.538-4.105 3.812-6.154 3.67 1.37 6.939 3.034 10.3 5.04l2.96 1.757 3.053 1.828 3.11 1.852c2.528 1.504 5.053 3.012 7.577 4.523-5.47 8.85-11.394 17.32-17.428 25.792-2.492 3.5-4.97 7.01-7.447 10.52-.49.696-.982 1.39-1.488 2.107-6.239 8.842-12.436 17.713-18.637 26.581a7173.064 7173.064 0 0 1-21.461 30.567A4098.61 4098.61 0 0 0 465 239a4842.944 4842.944 0 0 1-14.46 20.566 4621.122 4621.122 0 0 0-13.307 18.962 3449.526 3449.526 0 0 1-13.327 18.917A422.798 422.798 0 0 0 416 309l-2.336-1.277-3.039-1.66-3.023-1.653A157.118 157.118 0 0 0 403 302c.583-4.192 2.002-7.042 4.219-10.629l2.052-3.347 2.229-3.587 2.282-3.713c1.59-2.59 3.183-5.176 4.778-7.761 3.576-5.8 7.11-11.626 10.645-17.451 1.085-1.788 2.172-3.574 3.26-5.36 3.25-5.346 6.473-10.696 9.535-16.152a2866.84 2866.84 0 0 0-34-21c1.434-3.861 3.231-7.298 5.316-10.848l.996-1.7c1.08-1.84 2.165-3.677 3.25-5.514l2.273-3.86a2659.585 2659.585 0 0 1 16.353-27.328l1.063-1.759c4.1-6.77 8.287-13.454 12.749-19.991 3.868 1.427 7.257 3.238 10.781 5.371l3.301 1.99 3.418 2.077 3.418 2.064c2.1 1.269 4.2 2.54 6.299 3.812 2.59 1.57 5.185 3.13 7.783 4.686 2.385-2.447 2.385-2.447 4-6-1.074-7.292-5.47-14.413-8.688-20.938-1.007-2.049-2.011-4.1-3.011-6.152l-1.339-2.714C475 124 475 124 475 122l-79 1-8 19.25-2.469 5.935a2609.498 2609.498 0 0 0-11.031 26.924l-1.025 2.534-.944 2.356-.826 2.056c-2.583 7.124-3.116 15.448-.267 22.507 6.661 6.337 15.027 7.422 23.875 8l3.8.254L402 213l1 5h-79l-1-3c2.565-2.565 4.063-2.433 7.625-2.875 8.767-1.391 14.493-4.073 20.203-11.012 11.345-16.261 17.93-35.423 25.206-53.724 3.495-8.763 7.16-17.453 10.841-26.139 1.343-3.175 2.686-6.351 4.027-9.527l1.017-2.407c3.88-9.193 7.701-18.41 11.519-27.629l1.057-2.552c3.268-7.89 6.533-15.783 9.796-23.676 1.91-4.621 3.822-9.242 5.734-13.863 1.061-2.565 2.12-5.13 3.18-7.697A1322.978 1322.978 0 0 1 436 4Zm-4 30c-5.056 12.235-10.11 24.47-15.162 36.706-2.393 5.795-4.787 11.59-7.184 17.385l-3.93 9.514c-.607 1.471-1.215 2.942-1.824 4.412-.837 2.02-1.671 4.043-2.505 6.065l-1.411 3.413c-1.045 2.212-1.045 2.212-.984 3.505h72a113.686 113.686 0 0 0-5.457-13.477l-1.029-2.167c-.728-1.533-1.458-3.065-2.189-4.597-1.929-4.042-3.847-8.09-5.766-12.138a2824.48 2824.48 0 0 1-11.809-25.184l-1.55-3.34A2559.993 2559.993 0 0 1 434 34h-2Z"/><path fill="#4B4948" d="M660.676 171.61c.925.005 1.85.01 2.803.017 2.945.022 5.889.072 8.833.123 2.001.02 4.002.038 6.002.055 4.896.044 9.79.113 14.686.195v4c-2.36 2.36-8.76 1.8-12.123 2.074-4.938.477-8.5 1.42-12.877 3.926l-3 1c-3.656 9.75-3.034 19.93-2.579 30.154a4330.542 4330.542 0 0 0 .656 15.68c.173 4.015.338 8.03.503 12.044.28 6.749.565 13.497.853 20.245.404 9.462.799 18.925 1.192 28.388a47401.674 47401.674 0 0 0 1.03 24.58c-1.578 29.878-1.578 29.878 5.345 56.909 5.625 4.083 10.607 4.778 17.438 5.25l2.794.234c2.256.187 4.51.359 6.768.516l-1 5h-75v-5c1.085-.11 2.17-.22 3.29-.332l4.335-.48 2.16-.213c4.607-.529 8.253-1.39 12.215-3.975 2.806-3.793 3.37-6.464 3.331-11.14l-.011-3.687-.064-3.978c-.013-1.39-.025-2.782-.036-4.173-.142-14.348-.656-28.686-1.23-43.022-.144-3.644-.282-7.29-.42-10.934-.261-6.845-.528-13.69-.797-20.534-.307-7.817-.607-15.634-.907-23.45-.614-16.028-1.237-32.055-1.866-48.082a2271073.308 2271073.308 0 0 0-17.608 40.639 91379.441 91379.441 0 0 1-34.258 78.964 56730.253 56730.253 0 0 1-9.298 21.41l-1.19 2.74-1.162 2.68c-.747 1.714-1.496 3.428-2.247 5.14a561.652 561.652 0 0 0-5.402 12.683l-1.065 2.541a255.939 255.939 0 0 0-1.948 4.775c-.902 2.125-.902 2.125-2.822 5.428-2.734.985-2.734.985-5 1-5.048-7.447-8.578-15.511-12.25-23.688l-2.111-4.662a8187.8 8187.8 0 0 1-3.298-7.28 2331.01 2331.01 0 0 0-8.666-18.931l-2.118-4.585a2728.51 2728.51 0 0 1-20.293-45.057l-1.873-4.246-.891-2.027a174.555 174.555 0 0 0-5.453-11.169c-1.844-3.682-2.93-6.186-2.047-10.355 1.374-2.933 3.041-5.605 4.813-8.313l1.369-2.205c3.414-5.347 3.414-5.347 6.818-6.482l1.123 2.49c7.176 15.892 14.419 31.748 21.877 47.51 6.083 12.856 12.022 25.77 17.885 38.728 4.284 9.466 8.635 18.897 13.115 28.272 4.332-8.354 8.174-16.85 11.832-25.516 1.628-3.851 3.269-7.697 4.91-11.543l1.046-2.45c3.963-9.276 8.023-18.51 12.087-27.741l4.57-10.387 1.145-2.6a7631.423 7631.423 0 0 0 11.091-25.371l3.183-7.305c3.04-6.972 6.076-13.945 9.1-20.924 1.256-2.896 2.515-5.79 3.774-8.685.577-1.326 1.151-2.653 1.725-3.98 2.924-6.77 5.93-13.502 9.123-20.15l1.619-3.402c4.371-7.173 8.659-7.517 16.47-7.337Z"/><path fill="#4E4D4C" d="M436 4h5c9.453 19.966 18.872 39.946 28.146 59.996 2.162 4.67 4.328 9.34 6.495 14.008 3.683 7.94 7.362 15.881 11.038 23.825 2.03 4.387 4.065 8.772 6.108 13.153 1.283 2.754 2.56 5.511 3.838 8.268l1.342 2.862 1.197 2.591 1.014 2.177c2.276 5.872 2.276 5.872 1.125 9.033l-1.139 1.786-1.226 1.975-1.313 2.013-2.523 4.012L493 153l-1 2c-3-1-3-1-4.518-3.62l-1.584-3.462-.854-1.85a573.086 573.086 0 0 1-1.77-3.887 732.906 732.906 0 0 0-2.712-5.925c-4.398-9.601-4.398-9.601-5.562-14.256l-79 1-8 19.25-2.469 5.935a2609.498 2609.498 0 0 0-11.031 26.924l-1.025 2.534-.944 2.356-.826 2.056c-2.583 7.124-3.116 15.448-.267 22.507 6.661 6.337 15.027 7.422 23.875 8l3.8.254L402 213l1 5h-79l-1-3c2.565-2.565 4.063-2.433 7.625-2.875 8.767-1.391 14.493-4.073 20.203-11.012 11.345-16.261 17.93-35.423 25.206-53.724 3.495-8.763 7.16-17.453 10.841-26.139 1.343-3.175 2.686-6.351 4.027-9.527l1.017-2.407c3.88-9.193 7.701-18.41 11.519-27.629l1.057-2.552c3.268-7.89 6.533-15.783 9.796-23.676 1.91-4.621 3.822-9.242 5.734-13.863 1.061-2.565 2.12-5.13 3.18-7.697A1322.978 1322.978 0 0 1 436 4Zm-4 30c-5.056 12.235-10.11 24.47-15.162 36.706-2.393 5.795-4.787 11.59-7.184 17.385l-3.93 9.514c-.607 1.471-1.215 2.942-1.824 4.412-.837 2.02-1.671 4.043-2.505 6.065l-1.411 3.413c-1.045 2.212-1.045 2.212-.984 3.505h72a113.686 113.686 0 0 0-5.457-13.477l-1.029-2.167c-.728-1.533-1.458-3.065-2.189-4.597-1.929-4.042-3.847-8.09-5.766-12.138a2824.48 2824.48 0 0 1-11.809-25.184l-1.55-3.34A2559.993 2559.993 0 0 1 434 34h-2Z"/><path fill="#4F4D4D" d="m591 57 6 2c0 4.498 0 4.498-2.133 7.406l-1.422 1.973-1.57 2.121a6399.32 6399.32 0 0 0-3.32 4.594l-1.767 2.43C583.81 81.647 580.908 85.825 578 90a3682.64 3682.64 0 0 1-14.79 21.021 540.251 540.251 0 0 0-6.886 9.924l-1.258 1.856c-1.114 1.647-2.22 3.3-3.324 4.953L550 130h-2l-.836 1.753c-1.135 2.19-2.386 4.163-3.781 6.196l-1.57 2.293-1.688 2.446-1.76 2.56a1862.701 1862.701 0 0 1-14.275 20.385 2870.98 2870.98 0 0 0-9.965 14.18l-1.769 2.528L507 190a7173.064 7173.064 0 0 1-21.461 30.567A4098.61 4098.61 0 0 0 474 237a4842.944 4842.944 0 0 1-14.46 20.566A4122.457 4122.457 0 0 0 448 274c-4.45 6.36-8.903 12.718-13.375 19.063l-1.492 2.119a619.13 619.13 0 0 1-8.57 11.818c-2.203 3.003-4.153 5.95-5.875 9.25-2.618 4.928-5.918 9.273-9.247 13.734-3.532 4.743-6.925 9.565-10.253 14.454-3.606 5.29-7.278 10.49-11.188 15.562-2.438-.813-2.438-.813-5-2l-1-3a85.031 85.031 0 0 1 4.563-6.938l1.485-2.102c1.07-1.514 2.145-3.026 3.224-4.535 2.413-3.386 4.79-6.798 7.17-10.208 2.277-3.263 4.56-6.522 6.853-9.775a414.177 414.177 0 0 0 3.613-5.267l1.889-2.777 1.714-2.549L414 309h2c.235-.694.47-1.387.71-2.102 1.54-3.46 3.633-6.282 5.915-9.273 4.915-6.57 9.642-13.255 14.313-20 4.704-6.789 9.415-13.571 14.187-20.313 4.31-6.09 8.6-12.196 12.875-18.312a4358.22 4358.22 0 0 1 13-18.5c6.7-9.477 13.35-18.989 20-28.5a7099.739 7099.739 0 0 1 21.446-30.545 4420.916 4420.916 0 0 0 13.747-19.594l1.678-2.4 1.613-2.31a430.954 430.954 0 0 1 4.176-5.8c1.964-2.731 3.613-5.574 5.25-8.516 2.135-3.594 4.674-6.91 7.153-10.272 4.248-5.822 8.438-11.672 12.5-17.626 3.805-5.576 7.66-11.115 11.562-16.624C581.132 71.242 586.085 64.136 591 57Z"/><path fill="#504E4D" d="M475 294h1l.018 2.407c.058 7.517.13 15.034.218 22.552.044 3.863.084 7.727.11 11.591.027 3.735.067 7.47.117 11.204.017 1.419.028 2.838.035 4.257-.273 12.524-.273 12.524 4.847 23.563 4.921 4.387 10.09 5.65 16.467 6.551l3.52.508L504 377v5h-63l-1-5 2.414-.332c9.78-1.392 9.78-1.392 17.774-6.856 4.606-7.148 5.891-14.582 6.093-22.992l.056-2.09c.058-2.202.111-4.403.163-6.605.138-5.71.302-11.417.5-17.125l.063-2.102c.454-13.885.454-13.885 4.437-19.836l1.906-2.964L475 294Z"/><path fill="#52504F" d="M472 494h10a5008.57 5008.57 0 0 1 6 11.875l1.734 3.418 1.641 3.262 1.523 3.015C494 518 494 518 494 520h2l.68-2.352c1.766-4.88 4.092-9.403 6.445-14.023l1.418-2.809c1.149-2.274 2.302-4.545 3.457-6.816h10v43h-7l-2-26c-3.248 6.865-3.248 6.865-6.492 13.732l-1.223 2.577-1.254 2.65C499 532 499 532 498 533c-2 .04-4 .043-6 0l-12-24-1 28h-7v-43Z"/><path fill="#595756" d="M596 494c9 0 9 0 11.196 1.494l1.5 2.092 1.73 2.324 1.699 2.465 1.723 2.348c1.75 2.402 3.45 4.84 5.152 7.277l7 10 1-28h8v43c-9 0-9 0-11.104-1.402l-1.373-1.965-1.593-2.188-1.555-2.32-1.578-2.203c-1.629-2.287-3.212-4.605-4.797-6.922l-7-10-1 27h-9v-43Z"/><path fill="#535150" d="M295 494c8 0 8 0 10.328 1.844l1.922 2.656 2.23 2.988 1.197 1.675c1.98 2.75 4.037 5.44 6.086 8.139 2.429 3.22 4.83 6.461 7.237 9.698l1-27h8v43c-9 0-9 0-11.212-1.617l-1.518-2.258-1.745-2.488-1.712-2.637-3.481-5.063-1.509-2.285c-2.495-3.63-5.18-7.128-7.823-10.652l-1 27h-8v-43Z"/><path fill="#565554" d="M251.5 495.5c5.05 3.083 9.624 7.872 11.5 13.5.69 7.197.945 13.389-3.508 19.352-4.589 5.07-9.03 8.28-15.98 9.02-7.657.132-13.685.165-19.512-5.372-5.213-5.247-7.145-8.76-7.25-16.313.067-6.66 1.145-10.232 5.5-15.312 8.249-7.124 18.746-9.48 29.25-4.875ZM226 508.875c-1.608 5.025-1.798 9.05.563 13.813 2.402 3.742 5.238 5.87 9.437 7.312 4.996.954 9.187.17 13.453-2.61 3.432-3.084 5.404-6.887 5.668-11.511-.378-4.254-1.397-7.61-4.121-10.879-4.238-3.074-7.524-4.755-12.945-4.45-5.25 1.149-9.026 3.97-12.055 8.325Z"/><path fill="#535251" d="m151 494 12.563-.25 3.92-.11c6.733-.065 11.12.183 16.517 4.36 3.389 4.7 3.754 9.39 3 15-1.408 3.62-2.906 6.579-6 9h-2l1.969 3.027 2.531 3.91 1.3 1.999c3.2 4.95 3.2 4.95 3.2 6.064-3.54.705-6.49.942-10 0-3.179-3.402-7-8.152-7-13h-12v13h-8v-43Zm8 7v16l6.688.188 3.761.105c3.768-.31 5.579-1.016 8.551-3.293 1.405-2.81 1.249-4.888 1-8-1.78-3.136-2.523-3.841-6-5-4.67-.136-9.327-.043-14 0ZM735 494l12.625-.25 3.948-.11c10.618-.102 10.618-.102 15.427 4.36 2.881 3.279 3.912 5.851 4.25 10.25-.33 4.942-1.685 8.81-4.813 12.688C765 522 765 522 763 522c.767 1.419 1.539 2.835 2.313 4.25l1.3 2.39c1.34 2.392 1.34 2.392 3.055 4.532C771 535 771 535 771 537c-3.247.812-5.785 1.023-9 0-1.992-2.637-1.992-2.637-3.875-5.938-2.573-4.667-2.573-4.667-7.07-7.082-3.377-.318-3.377-.318-8.055.02v13h-8v-43Zm8 7v16l6.688.188 3.761.105c3.786-.312 5.618-.916 8.551-3.293.943-3.457 1.34-5.854.313-9.313-1.66-2.133-2.772-2.72-5.313-3.687-3.509-.242-3.509-.242-7.25-.125L743 501Z"/><path fill="#575554" d="M817 494h9c4.627 9.726 9.056 19.537 13.438 29.375l.832 1.863c.786 1.761 1.568 3.523 2.351 5.285l1.389 3.123C845 536 845 536 845 537h-10l-3-9-21 1-4 8h-9c6.112-14.438 12.457-28.752 19-43Zm4 10c-.984 2.081-1.962 4.165-2.938 6.25l-1.652 3.516c-1.542 3.293-1.542 3.293-2.41 7.234h15l-7-17h-1ZM26 494h10c2.568 5.8 5.132 11.603 7.69 17.407.872 1.976 1.745 3.95 2.62 5.925a4672.54 4672.54 0 0 1 3.752 8.504l1.194 2.686 1.092 2.487.969 2.194C54 535 54 535 54 537h-9c-3-5.625-3-5.625-3-9H20l-3 9H8c1.904-5.936 4.025-11.631 6.574-17.316l.996-2.249c1.035-2.334 2.076-4.666 3.117-6.997A6263.294 6263.294 0 0 1 26 494Zm4 10c-1.007 2.268-2.006 4.54-3 6.813l-.867 1.947C24.863 515.678 24 517.783 24 521h14c-1.88-6.016-4.06-11.425-7-17h-1Z"/><path fill="#5B5958" d="M395.438 495.5 398 497c-.875 5.75-.875 5.75-2 8-2.885-.525-5.527-1.179-8.313-2.125-4.402-1.045-7.265-.65-11.687.125.589 2.457.589 2.457 2 5 2.625 1.58 2.625 1.58 5.75 2.625l3.262 1.258L390 513c4.635 1.952 7.058 3.253 9 8 .401 3.745.332 6.206-1.125 9.688-3.182 3.924-6.37 6.07-11.39 6.878-8.018-.008-14.978-.433-21.485-5.566l-1-3c1.438-2.688 1.438-2.688 3-5l2 .813 3 1.187 1.797.836c5.372 2.342 9.488 2.262 15.203 1.164v-5l-1.652-.734c-1.589-.706-3.176-1.415-4.762-2.125a228.569 228.569 0 0 0-5.047-2.157c-8.453-3.538-8.453-3.538-10.539-6.984-.783-4.852-.744-8.677 1.688-13 6.744-5.833 18.758-5.962 26.75-2.5Z"/><path fill="#5A5958" d="M956.754 494.902C958.937 496 958.937 496 962 498l-3 7c-2.524-.492-5.033-1.008-7.535-1.605l-2.528-.582-2.535-.606c-2.789-.24-4.057.336-6.402 1.793.149 1.955.149 1.955 1 4 2.034 1.222 2.034 1.222 4.563 2 11.19 4.104 11.19 4.104 15.437 7.688 1.628 3.763 1.752 7.295 1 11.312-2.044 3.836-4.945 6.453-9 8-9.41 1.052-16.957.299-25-5 0-3.767.235-4.912 2-8 2.586.497 4.412 1.225 6.75 2.5 4 1.846 6.847 2.287 11.25 2.5 2.424-.788 2.424-.788 4-2 .114-2.43.114-2.43-1-5a54.11 54.11 0 0 0-7.75-2.938c-6.221-1.851-9.612-3.534-13.25-9.062-1.037-3.774-.323-7.193 1.125-10.813 6.033-7.038 17.35-6.997 25.629-4.285Z"/><path fill="#4C4B4A" d="M670 494h31v7h-23v11h21v7h-21v11h24v7h-32v-43Z"/><path fill="#5B5958" d="M114.75 495.75c3.14 2.174 3.832 2.942 5.25 6.25l-4 4c-4.76-1.851-4.76-1.851-6.813-3.125-3.382-1.353-6.636-1.436-10.187-.875-5.022 2.653-8.144 5.311-9.875 10.75-.21 5.474 1.412 9.572 5 13.688C98.07 528.58 101.51 529.35 106 529c2.261-.843 4.213-1.839 6.273-3.09C114 525 114 525 117 525c1.688 2 1.688 2 3 4-1.64 3.828-3.546 5.466-7.39 7.234-6.678 1.96-14.68 2.06-21.11-.797-4.949-3.005-8.393-7.123-10.875-12.312C79.231 516.157 79.184 509.217 83 503c8.194-9.01 20.164-12.65 31.75-7.25Z"/><path fill="#504E4E" d="M874 494h8v36h19v7h-27v-43Z"/><path fill="#504F4E" d="M553 494h8v43h-8v-43Z"/><path fill="#898888" d="M91 497c-1.44 3.362-3.248 5.592-6 8h-2c1.517-3.54 3.753-8 8-8Z"/><path fill="#959493" d="m226 497 2 1-8 8c0-3 0-3 2.438-5.625L225 498l1-1Z"/></svg>